<?xml version="1.0" encoding="UTF-8" standalone="no"?>
<!DOCTYPE svg PUBLIC "-//W3C//DTD SVG 1.1//EN" "http://www.w3.org/Graphics/SVG/1.1/DTD/svg11.dtd">
<svg width="100%" height="100%" viewBox="0 0 150 150" version="1.1" xmlns="http://www.w3.org/2000/svg" xmlns:xlink="http://www.w3.org/1999/xlink" xml:space="preserve" xmlns:serif="http://www.serif.com/" style="fill-rule:evenodd;clip-rule:evenodd;stroke-linecap:round;stroke-miterlimit:10;">
    <g id="Layer_1_1_" transform="matrix(0.292969,0,0,0.292969,0,0)">
        <circle cx="256" cy="248.726" r="243" style="fill:rgb(38,166,209);fill-opacity:0.61;"/>
    </g>
    <g id="Layer_2" transform="matrix(0.292969,0,0,0.292969,0,0)">
        <g>
            <g>
                <g>
                    <clipPath id="_clip1">
                        <circle cx="256" cy="248.726" r="243"/>
                    </clipPath>
                    <g clip-path="url(#_clip1)">
                        <g opacity="0.5">
                            <path d="M264.031,311.555C268.393,312.943 272.645,314.787 276.366,317.536C283.609,322.888 288.28,330.924 290.803,339.646C291.507,342.079 294.109,340.07 295.67,339.603C298.55,338.741 301.561,338.363 304.556,338.55C309.172,338.839 313.757,339.989 317.877,342.192C325.633,346.34 330.836,353.949 332.929,362.626C333.357,364.399 333.185,366.645 335.416,366.698C337.732,366.753 340.033,367.261 342.124,368.307C346.083,370.289 351.328,375.807 351.167,380.705C350.892,389.05 348.655,397.239 340.012,400.082C335.27,401.642 329.274,400.633 324.396,400.635C299.924,400.643 275.451,400.652 250.979,400.644C240.058,400.64 229.137,400.636 218.215,400.611C212.097,400.597 206.432,401.284 200.742,398.62C182.097,389.892 179.245,361.343 195.904,348.941C200.403,345.592 205.852,343.949 211.355,343.691C214.779,343.531 215.746,343.713 216.658,340.113C217.491,336.823 218.642,333.613 220.174,330.601C222.713,325.609 226.311,321.263 230.719,317.938C232.987,316.227 235.442,314.789 238.002,313.602C239.353,312.976 240.77,312.516 242.136,311.924C245.25,310.577 257.4,309.445 264.031,311.555Z" style="fill:rgb(196,240,255);fill-rule:nonzero;"/>
                        </g>
                    </g>
                </g>
            </g>
            <g>
                <g>
                    <clipPath id="_clip2">
                        <circle cx="256" cy="248.726" r="243"/>
                    </clipPath>
                    <g clip-path="url(#_clip2)">
                        <g opacity="0.5">
                            <path d="M75.901,96.965C80.263,98.353 84.515,100.197 88.236,102.946C95.479,108.297 100.15,116.334 102.673,125.056C103.377,127.489 105.979,125.48 107.54,125.013C110.42,124.151 113.431,123.773 116.426,123.96C121.042,124.249 125.627,125.399 129.747,127.602C137.503,131.75 142.706,139.359 144.799,148.036C145.227,149.809 145.055,152.055 147.286,152.108C149.602,152.163 151.903,152.671 153.994,153.717C157.953,155.699 163.198,161.217 163.037,166.115C162.762,174.46 160.525,182.649 151.882,185.492C147.14,187.052 141.144,186.043 136.266,186.045C111.794,186.053 87.321,186.062 62.849,186.054C51.928,186.05 41.007,186.046 30.085,186.021C23.967,186.007 18.302,186.694 12.612,184.03C-6.033,175.302 -8.885,146.753 7.774,134.351C12.273,131.002 17.722,129.359 23.225,129.101C26.649,128.941 27.616,129.123 28.528,125.523C29.361,122.233 30.512,119.023 32.044,116.011C34.583,111.019 38.181,106.673 42.589,103.348C44.857,101.637 47.312,100.199 49.872,99.012C51.223,98.386 52.64,97.926 54.006,97.334C57.119,95.987 69.27,94.855 75.901,96.965Z" style="fill:rgb(196,240,255);fill-rule:nonzero;"/>
                        </g>
                    </g>
                </g>
            </g>
            <g>
                <clipPath id="_clip3">
                    <circle cx="256" cy="248.726" r="243"/>
                </clipPath>
                <g clip-path="url(#_clip3)">
                    <path d="M316.212,132.282L-26.288,331.056L-11.685,359.406L316.212,132.282Z" style="fill:rgb(255,236,95);fill-opacity:0.1;fill-rule:nonzero;"/>
                </g>
            </g>
            <g>
                <clipPath id="_clip4">
                    <circle cx="256" cy="248.726" r="243"/>
                </clipPath>
                <g clip-path="url(#_clip4)">
                    <path d="M316.212,132.282L6.911,379.568L25.55,405.444L316.212,132.282Z" style="fill:rgb(255,236,95);fill-opacity:0.1;fill-rule:nonzero;"/>
                </g>
            </g>
            <g>
                <clipPath id="_clip5">
                    <circle cx="256" cy="248.726" r="243"/>
                </clipPath>
                <g clip-path="url(#_clip5)">
                    <path d="M316.212,132.282L44.791,420.636L66.886,443.631L316.212,132.282Z" style="fill:rgb(255,236,95);fill-opacity:0.1;fill-rule:nonzero;"/>
                </g>
            </g>
            <g>
                <clipPath id="_clip6">
                    <circle cx="256" cy="248.726" r="243"/>
                </clipPath>
                <g clip-path="url(#_clip6)">
                    <path d="M316.212,132.282L88.407,456.2L113.54,475.83L316.212,132.282Z" style="fill:rgb(255,236,95);fill-opacity:0.1;fill-rule:nonzero;"/>
                </g>
            </g>
            <g>
                <clipPath id="_clip7">
                    <circle cx="256" cy="248.726" r="243"/>
                </clipPath>
                <g clip-path="url(#_clip7)">
                    <path d="M316.212,132.282L150.619,491.999L178.881,506.771L316.212,132.282Z" style="fill:rgb(255,236,95);fill-opacity:0.1;fill-rule:nonzero;"/>
                </g>
            </g>
            <g>
                <clipPath id="_clip8">
                    <circle cx="256" cy="248.726" r="243"/>
                </clipPath>
                <g clip-path="url(#_clip8)">
                    <path d="M316.212,132.282L213.713,514.789L244.064,524.578L316.212,132.282Z" style="fill:rgb(255,236,95);fill-opacity:0.1;fill-rule:nonzero;"/>
                </g>
            </g>
            <g>
                <clipPath id="_clip9">
                    <circle cx="256" cy="248.726" r="243"/>
                </clipPath>
                <g clip-path="url(#_clip9)">
                    <path d="M316.212,132.282L283.326,526.916L314.933,531.155L316.212,132.282Z" style="fill:rgb(255,236,95);fill-opacity:0.1;fill-rule:nonzero;"/>
                </g>
            </g>
            <g>
                <clipPath id="_clip10">
                    <circle cx="256" cy="248.726" r="243"/>
                </clipPath>
                <g clip-path="url(#_clip10)">
                    <path d="M316.212,132.282L361.106,525.731L392.932,523.71L316.212,132.282Z" style="fill:rgb(255,236,95);fill-opacity:0.1;fill-rule:nonzero;"/>
                </g>
            </g>
            <g>
                <clipPath id="_clip11">
                    <circle cx="256" cy="248.726" r="243"/>
                </clipPath>
                <g clip-path="url(#_clip11)">
                    <path d="M316.212,132.282L450.838,504.698L481.335,495.374L316.212,132.282Z" style="fill:rgb(255,236,95);fill-opacity:0.1;fill-rule:nonzero;"/>
                </g>
            </g>
            <g>
                <clipPath id="_clip12">
                    <circle cx="256" cy="248.726" r="243"/>
                </clipPath>
                <g clip-path="url(#_clip12)">
                    <path d="M316.212,132.282L531.355,464.744L558.964,448.783L316.212,132.282Z" style="fill:rgb(255,236,95);fill-opacity:0.1;fill-rule:nonzero;"/>
                </g>
            </g>
            <g>
                <clipPath id="_clip13">
                    <circle cx="256" cy="248.726" r="243"/>
                </clipPath>
                <g clip-path="url(#_clip13)">
                    <path d="M316.212,132.282L603.355,404.984L626.449,382.991L316.212,132.282Z" style="fill:rgb(255,236,95);fill-opacity:0.1;fill-rule:nonzero;"/>
                </g>
            </g>
            <g>
                <clipPath id="_clip14">
                    <circle cx="256" cy="248.726" r="243"/>
                </clipPath>
                <g clip-path="url(#_clip14)">
                    <path d="M316.212,132.282L-62.643,247.548L-54.903,278.484L316.212,132.282Z" style="fill:rgb(255,236,95);fill-opacity:0.1;fill-rule:nonzero;"/>
                </g>
            </g>
            <g>
                <clipPath id="_clip15">
                    <circle cx="256" cy="248.726" r="243"/>
                </clipPath>
                <g clip-path="url(#_clip15)">
                    <path d="M316.212,132.282L-79.526,146.75L-79.961,178.637L316.212,132.282Z" style="fill:rgb(255,236,95);fill-opacity:0.1;fill-rule:nonzero;"/>
                </g>
            </g>
            <g>
                <clipPath id="_clip16">
                    <circle cx="256" cy="248.726" r="243"/>
                </clipPath>
                <g clip-path="url(#_clip16)">
                    <path d="M316.212,132.282L-70.277,46.007L-78.778,76.743L316.212,132.282Z" style="fill:rgb(255,236,95);fill-opacity:0.1;fill-rule:nonzero;"/>
                </g>
            </g>
            <g>
                <clipPath id="_clip17">
                    <circle cx="256" cy="248.726" r="243"/>
                </clipPath>
                <g clip-path="url(#_clip17)">
                    <path d="M316.212,132.282L-41.772,-37.025L-56.836,-8.917L316.212,132.282Z" style="fill:rgb(255,236,95);fill-opacity:0.1;fill-rule:nonzero;"/>
                </g>
            </g>
            <g>
                <clipPath id="_clip18">
                    <circle cx="256" cy="248.726" r="243"/>
                </clipPath>
                <g clip-path="url(#_clip18)">
                    <path d="M316.212,132.282L25.646,-136.77L2.832,-114.487L316.212,132.282Z" style="fill:rgb(255,236,95);fill-opacity:0.1;fill-rule:nonzero;"/>
                </g>
            </g>
            <g>
                <clipPath id="_clip19">
                    <circle cx="256" cy="248.726" r="243"/>
                </clipPath>
                <g clip-path="url(#_clip19)">
                    <path d="M316.212,132.282L151.703,-227.932L122.067,-216.156L316.212,132.282Z" style="fill:rgb(255,236,95);fill-opacity:0.1;fill-rule:nonzero;"/>
                </g>
            </g>
            <g>
                <clipPath id="_clip20">
                    <circle cx="256" cy="248.726" r="243"/>
                </clipPath>
                <g clip-path="url(#_clip20)">
                    <path d="M289.08,193.959L316.212,251.053L343.344,193.959L289.08,193.959Z" style="fill:rgb(255,236,95);fill-rule:nonzero;"/>
                </g>
            </g>
            <g>
                <clipPath id="_clip21">
                    <circle cx="256" cy="248.726" r="243"/>
                </clipPath>
                <g clip-path="url(#_clip21)">
                    <path d="M379.306,156.586L400.492,216.143L340.935,194.957L379.306,156.586Z" style="fill:rgb(255,236,95);fill-rule:nonzero;"/>
                </g>
            </g>
            <g>
                <g>
                    <clipPath id="_clip22">
                        <circle cx="256" cy="248.726" r="243"/>
                    </clipPath>
                    <g clip-path="url(#_clip22)">
                        <circle cx="316.212" cy="132.282" r="75.162" style="fill:rgb(255,236,95);"/>
                    </g>
                </g>
            </g>
            <g>
                <g>
                    <clipPath id="_clip23">
                        <circle cx="256" cy="248.726" r="243"/>
                    </clipPath>
                    <g clip-path="url(#_clip23)">
                        <circle cx="316.212" cy="132.282" r="75.162" style="fill:rgb(255,236,109);"/>
                    </g>
                </g>
            </g>
            <g>
                <g>
                    <clipPath id="_clip24">
                        <circle cx="256" cy="248.726" r="243"/>
                    </clipPath>
                    <g clip-path="url(#_clip24)">
                        <circle cx="316.212" cy="132.282" r="63.294" style="fill:rgb(255,236,95);"/>
                    </g>
                </g>
            </g>
            <g>
                <g>
                    <clipPath id="_clip25">
                        <circle cx="256" cy="248.726" r="243"/>
                    </clipPath>
                    <g clip-path="url(#_clip25)">
                        <circle cx="316.212" cy="132.282" r="43.057" style="fill:rgb(255,236,95);"/>
                    </g>
                </g>
            </g>
            <g>
                <g>
                    <clipPath id="_clip26">
                        <circle cx="256" cy="248.726" r="243"/>
                    </clipPath>
                    <g clip-path="url(#_clip26)">
                        <path d="M405.338,111.773C398.206,114.004 391.255,116.966 385.171,121.384C373.328,129.984 365.692,142.898 361.567,156.914C360.416,160.824 356.161,157.595 353.609,156.844C348.9,155.46 343.978,154.851 339.081,155.152C331.533,155.616 324.038,157.464 317.302,161.005C304.621,167.671 296.115,179.898 292.692,193.841C291.993,196.689 292.273,200.299 288.626,200.384C284.84,200.472 281.077,201.288 277.659,202.97C271.186,206.155 262.61,215.022 262.874,222.894C263.324,236.303 266.982,249.464 281.112,254.032C288.866,256.538 298.668,254.918 306.645,254.92C346.657,254.934 386.669,254.948 426.681,254.934C444.537,254.928 462.393,254.921 480.249,254.881C490.251,254.859 499.514,255.962 508.816,251.682C539.3,237.657 543.964,191.78 516.726,171.851C509.37,166.469 500.46,163.829 491.464,163.415C485.865,163.158 484.284,163.451 482.793,157.665C481.431,152.378 479.549,147.22 477.045,142.38C472.894,134.358 467.012,127.374 459.805,122.031C456.097,119.282 452.084,116.971 447.897,115.064C445.688,114.058 443.372,113.318 441.139,112.368C436.046,110.2 416.18,108.382 405.338,111.773Z" style="fill:rgb(196,240,255);fill-rule:nonzero;"/>
                    </g>
                </g>
            </g>
        </g>
        <path d="M170.447,384.042L170.447,181.432C170.447,173.97 162.575,167.922 152.864,167.922L114.16,167.922C104.449,167.922 96.577,173.971 96.577,181.432L96.577,384.042C77.406,396.363 64.679,417.974 64.679,442.595C64.679,480.926 95.497,511.999 133.513,511.999C171.529,511.999 202.347,480.926 202.347,442.595C202.345,417.974 189.618,396.363 170.447,384.042Z" style="fill:rgb(179,179,179);fill-rule:nonzero;"/>
        <path d="M173.273,382.268L173.273,181.323C173.273,173.923 165.401,167.924 155.69,167.924L116.986,167.924C107.275,167.924 99.403,173.923 99.403,181.323L99.403,382.268C80.232,394.487 67.505,415.921 67.505,440.34C67.505,478.356 98.323,509.174 136.339,509.174C174.355,509.174 205.173,478.356 205.173,440.34C205.172,415.92 192.445,394.487 173.273,382.268Z" style="fill:white;fill-rule:nonzero;"/>
        <path d="M167.451,391.402L162.442,388.21L162.442,277.811L110.234,277.811L110.234,388.209L105.225,391.401C88.387,402.133 78.336,420.427 78.336,440.34C78.336,472.322 104.356,498.342 136.339,498.342C168.321,498.342 194.341,472.322 194.341,440.34C194.341,420.428 184.289,402.133 167.451,391.402Z" style="fill:rgb(213,25,32);fill-rule:nonzero;"/>
        <path d="M133.154,195.944L165.994,195.944" style="fill:none;fill-rule:nonzero;stroke:rgb(77,77,77);stroke-width:6.25px;"/>
        <path d="M133.154,224.208L165.994,224.208" style="fill:none;fill-rule:nonzero;stroke:rgb(77,77,77);stroke-width:6.25px;"/>
        <path d="M133.154,252.471L165.994,252.471" style="fill:none;fill-rule:nonzero;stroke:rgb(77,77,77);stroke-width:6.25px;"/>
        <path d="M133.154,280.734L165.994,280.734" style="fill:none;fill-rule:nonzero;stroke:rgb(77,77,77);stroke-width:6.25px;"/>
        <path d="M133.154,308.998L165.994,308.998" style="fill:none;fill-rule:nonzero;stroke:rgb(77,77,77);stroke-width:6.25px;"/>
        <path d="M133.154,337.261L165.994,337.261" style="fill:none;fill-rule:nonzero;stroke:rgb(77,77,77);stroke-width:6.25px;"/>
        <path d="M133.154,365.525L165.994,365.525" style="fill:none;fill-rule:nonzero;stroke:rgb(77,77,77);stroke-width:6.25px;"/>
        <path d="M149.051,508C144.933,508.778 140.686,509.176 136.34,509.176C98.326,509.176 67.501,478.36 67.501,440.337C67.501,415.922 80.232,394.487 99.403,382.265L99.403,181.32C99.403,173.923 107.279,167.921 116.989,167.921L142.421,167.921C132.711,167.921 124.835,173.923 124.835,181.32L124.835,382.264C105.664,394.487 92.943,415.921 92.943,440.336C92.943,474.014 117.119,502.038 149.051,508Z" style="fill-opacity:0.2;fill-rule:nonzero;"/>
        <path d="M193.864,440.337C193.864,478.36 163.048,509.176 125.035,509.176C122.652,509.176 120.29,509.056 117.967,508.817C152.671,505.278 179.738,475.978 179.738,440.337C179.738,415.922 167.007,394.487 147.836,382.265L147.836,181.32C147.836,173.923 139.96,167.921 130.25,167.921L144.387,167.921C154.097,167.921 161.973,173.923 161.973,181.32L161.973,382.264C181.143,394.487 193.864,415.922 193.864,440.337Z" style="fill:white;fill-opacity:0.4;fill-rule:nonzero;"/>
    </g>
</svg>
